<svg width="15" height="27" viewBox="0 0 15 27" fill="none" xmlns="http://www.w3.org/2000/svg">
<path d="M0.476562 13.4238C0.476562 13.2383 0.510742 13.0674 0.579102 12.9111C0.647461 12.7451 0.75 12.5938 0.886719 12.457L12.5029 1.08984C12.7666 0.835938 13.084 0.708984 13.4551 0.708984C13.709 0.708984 13.9336 0.767578 14.1289 0.884766C14.334 1.00195 14.4951 1.16309 14.6123 1.36816C14.7393 1.56348 14.8027 1.78809 14.8027 2.04199C14.8027 2.40332 14.6709 2.7207 14.4072 2.99414L3.74316 13.4238L14.4072 23.8535C14.6709 24.127 14.8027 24.4443 14.8027 24.8057C14.8027 25.0596 14.7393 25.2842 14.6123 25.4795C14.4951 25.6846 14.334 25.8457 14.1289 25.9629C13.9336 26.0801 13.709 26.1387 13.4551 26.1387C13.084 26.1387 12.7666 26.0068 12.5029 25.7432L0.886719 14.3906C0.75 14.2539 0.647461 14.1074 0.579102 13.9512C0.510742 13.7852 0.476562 13.6094 0.476562 13.4238Z" fill="#181F29"/>
</svg>
