<svg width="66" height="68" viewBox="0 0 66 68" fill="none" xmlns="http://www.w3.org/2000/svg">
<circle cx="33" cy="33" r="33" fill="#F5F7F9"/>
<path d="M33 39C35.3869 39 37.6761 38.1308 39.364 36.5836C41.0518 35.0365 42 32.938 42 30.75C42 28.562 41.0518 26.4635 39.364 24.9164C37.6761 23.3692 35.3869 22.5 33 22.5C30.613 22.5 28.3239 23.3692 26.636 24.9164C24.9482 26.4635 24 28.562 24 30.75C24 32.938 24.9482 35.0365 26.636 36.5836C28.3239 38.1308 30.613 39 33 39ZM13.395 56.8585C13.1179 57.5401 13.088 58.2855 13.3095 58.984C13.5311 59.6824 13.9924 60.2968 14.625 60.736C19.879 64.4793 26.3457 66.5078 33 66.5C39.93 66.5 46.314 64.344 51.393 60.725C52.683 59.8092 53.205 58.2417 52.617 56.8475C51.0937 53.2121 48.4037 50.0855 44.9019 47.8804C41.4002 45.6753 37.2513 44.4953 33.0029 44.4962C28.7545 44.4971 24.6062 45.6788 21.1056 47.8854C17.6049 50.092 14.9165 53.2197 13.395 56.8558" fill="#2D6EFF" fill-opacity="0.8"/>
</svg>
