<svg width="176" height="176" viewBox="0 0 176 176" fill="none" xmlns="http://www.w3.org/2000/svg">
<rect width="176" height="176" rx="24" fill="url(#paint0_linear_302_295)"/>
<path d="M27.7598 18.8711V26.0898H26.2422V24.7227H23.3027V23.4922H26.2422V22.166H23.4258C22.6396 24.1348 20.8418 25.5088 18.1484 26.2539L17.5332 25.0508C20.4248 24.2646 21.9629 22.8018 22.209 20.9629H18.1895V19.7324H23.8633C23.8633 20.1631 23.8291 20.5732 23.7539 20.9629H26.2422V18.8711H27.7598ZM23.6719 26.2266C26.1738 26.2266 27.8418 27.1699 27.8418 28.6875C27.8418 30.2051 26.1738 31.1484 23.6719 31.1484C21.1426 31.1484 19.4746 30.2051 19.4746 28.6875C19.4746 27.1699 21.1426 26.2266 23.6719 26.2266ZM23.6719 27.416C22.0039 27.416 20.9922 27.8672 20.9922 28.6875C20.9922 29.4941 22.0039 29.9453 23.6719 29.9453C25.2988 29.9453 26.3242 29.4941 26.3242 28.6875C26.3242 27.8672 25.2988 27.416 23.6719 27.416ZM33.8848 20.8262C33.8848 22.3848 34.8965 23.8477 36.7969 24.4492L35.9766 25.6387C34.6436 25.1875 33.6865 24.2852 33.1602 23.1367C32.6133 24.4492 31.6152 25.4814 30.1934 25.9805L29.373 24.791C31.3691 24.0938 32.3535 22.4531 32.3672 20.6895V19.5137H33.8848V20.8262ZM39.2578 18.8574V21.8652H40.9805V23.123H39.2578V26.2539H37.7402V18.8574H39.2578ZM35.2383 26.5273C37.7949 26.5137 39.3672 27.3887 39.3809 28.8516C39.3672 30.3418 37.7949 31.2031 35.2383 31.2031C32.6543 31.2031 31.0547 30.3418 31.0547 28.8516C31.0547 27.3887 32.6543 26.5137 35.2383 26.5273ZM35.2383 27.7168C33.543 27.7168 32.5723 28.127 32.5723 28.8516C32.5723 29.6172 33.543 30 35.2383 30C36.9336 30 37.877 29.6172 37.877 28.8516C37.877 28.127 36.9336 27.7168 35.2383 27.7168ZM52.875 24.8047V26.0078H47.9805V27.1973H51.4941V31.2168H49.9766V28.4277H42.8535V27.1973H46.4766V26.0078H41.6094V24.8047H52.875ZM44.5762 19.1582V20.3887H49.9082V19.1582H51.4121V23.8887H43.0723V19.1582H44.5762ZM44.5762 22.6719H49.9082V21.5234H44.5762V22.6719ZM63.7441 24.4766V25.6797H60.0801V28.5098H65.002V29.7539H53.709V28.5098H58.5762V25.6797H55.0762V19.7734H63.6484V20.9902H56.5938V24.4766H63.7441ZM73.1367 19.7188C75.0918 19.7051 76.5273 20.9492 76.541 22.6992C76.5273 24.4629 75.0918 25.6934 73.1367 25.6934C71.1953 25.6934 69.7461 24.4629 69.7461 22.6992C69.7461 20.9492 71.1953 19.7051 73.1367 19.7188ZM73.1367 21.0312C72.0566 21.0312 71.25 21.6738 71.25 22.6992C71.25 23.7383 72.0566 24.3672 73.1367 24.3672C74.2305 24.3672 75.0508 23.7383 75.0508 22.6992C75.0508 21.6738 74.2305 21.0312 73.1367 21.0312ZM79.4258 18.8574V31.2305H77.9082V18.8574H79.4258ZM69.1855 27.4023C71.4141 27.4023 74.5039 27.375 77.1699 26.9922L77.293 28.0996C74.5176 28.6328 71.5508 28.6465 69.377 28.6465L69.1855 27.4023ZM85.7559 20.6348C85.7422 22.3164 86.7266 23.8477 88.668 24.4629L87.8477 25.6523C86.501 25.1807 85.5576 24.2852 85.0312 23.1094C84.4844 24.4561 83.4521 25.5156 81.9551 26.0352L81.1484 24.8047C83.1992 24.1348 84.2246 22.4805 84.2246 20.7031V19.5273H85.7559V20.6348ZM91.5801 18.8574V26.1309H90.0625V22.4941H87.6016V21.25H90.0625V18.8574H91.5801ZM87.3965 26.459C90.0215 26.459 91.6211 27.334 91.6211 28.8379C91.6211 30.3418 90.0215 31.2031 87.3965 31.2031C84.7852 31.2031 83.1855 30.3418 83.1992 28.8379C83.1855 27.334 84.7852 26.459 87.3965 26.459ZM87.3965 27.6348C85.6738 27.6348 84.7031 28.0586 84.7031 28.8379C84.7031 29.5898 85.6738 30.0137 87.3965 30.0137C89.1191 30.0137 90.1035 29.5898 90.1035 28.8379C90.1035 28.0586 89.1191 27.6348 87.3965 27.6348ZM103.242 19.459V20.498C103.242 21.5303 103.242 22.6719 102.969 24.1758H104.623V25.3789H99.7969V28.1406H98.2793V25.3789H93.3301V24.1758H101.424C101.704 22.7607 101.725 21.6875 101.725 20.6895H94.7246V19.459H103.242ZM103.461 29.7402V30.9707H94.6836V27.0195H96.2012V29.7402H103.461Z" fill="white"/>
<path d="M24.8867 134.543V137.039H22.5195V138C23.9785 137.994 24.7109 137.959 25.5781 137.777L25.6953 138.609C24.6992 138.844 23.9023 138.867 22.0859 138.867H21.4414V136.266H23.8203V135.398H21.418V134.543H24.8867ZM28.6367 134.543V138.902H27.5352V135.434H25.3438V134.543H28.6367ZM28.6367 128.496V130.758H30.1602V131.672H28.6367V134.039H27.5234V128.496H28.6367ZM25.707 129.082V133.441H20.7969V129.082H25.707ZM21.8867 129.973V132.539H24.6172V129.973H21.8867ZM35.5391 128.719C37.8477 128.719 39.2891 129.469 39.2891 130.734C39.2891 131.977 37.8477 132.715 35.5391 132.715C33.2422 132.715 31.7891 131.977 31.7891 130.734C31.7891 129.469 33.2422 128.719 35.5391 128.719ZM35.5391 129.598C33.9219 129.598 32.9258 130.008 32.9375 130.734C32.9258 131.438 33.9219 131.836 35.5391 131.848C37.1445 131.836 38.1406 131.438 38.1406 130.734C38.1406 130.008 37.1445 129.598 35.5391 129.598ZM39.1602 135.363V138.867H31.9062V135.363H39.1602ZM33.0078 136.254V137.965H38.082V136.254H33.0078ZM40.332 133.523V134.426H30.7578V133.523H40.332Z" fill="white"/>
<path d="M24.4531 153.074V154.891C25.4141 154.838 26.3867 154.756 27.3008 154.621L27.3828 155.441C25.0039 155.875 22.4609 155.898 20.5859 155.898L20.4453 154.984C21.2891 154.979 22.2852 154.973 23.3398 154.938V153.074H24.4531ZM26.8086 148.832V149.734H24.4531C24.5117 150.965 25.5078 152.031 27.0781 152.453L26.5625 153.32C25.3086 152.963 24.3711 152.201 23.9023 151.199C23.4395 152.254 22.5195 153.051 21.2539 153.414L20.7266 152.57C22.291 152.125 23.2754 151.023 23.3281 149.734H21.0078V148.832H23.3398V147.578H24.4531V148.832H26.8086ZM29.0703 147.496V158.02H27.957V147.496H29.0703ZM39.2539 148.504V149.535C39.2539 150.836 39.2539 152.289 38.8555 154.434L37.7305 154.316C38.1406 152.289 38.1406 150.801 38.1406 149.535V149.406H31.7656V148.504H39.2539ZM40.332 155.652V156.578H30.7578V155.652H34.4023V151.949H35.5039V155.652H40.332ZM42.3242 155.91C41.8672 155.91 41.4805 155.535 41.4922 155.078C41.4805 154.621 41.8672 154.246 42.3242 154.246C42.7695 154.246 43.1562 154.621 43.1562 155.078C43.1562 155.535 42.7695 155.91 42.3242 155.91ZM42.3242 151.281C41.8672 151.281 41.4805 150.906 41.4922 150.449C41.4805 149.992 41.8672 149.617 42.3242 149.617C42.7695 149.617 43.1562 149.992 43.1562 150.449C43.1562 150.906 42.7695 151.281 42.3242 151.281ZM50.5977 157.117C48.8398 157.117 47.5859 156.168 47.5391 154.785H48.8516C48.8984 155.535 49.6367 156.004 50.5859 156.004C51.6055 156.004 52.3555 155.441 52.3555 154.621C52.3555 153.789 51.6523 153.18 50.4453 153.18H49.7188V152.125H50.4453C51.4062 152.125 52.0859 151.586 52.0859 150.777C52.0859 150.004 51.5117 149.477 50.6094 149.477C49.7539 149.477 49.0039 149.945 48.9688 150.719H47.7266C47.7617 149.336 49.0391 148.398 50.6211 148.398C52.2852 148.398 53.3398 149.453 53.3281 150.707C53.3398 151.668 52.7422 152.371 51.8281 152.594V152.652C52.9883 152.816 53.6562 153.59 53.6562 154.668C53.6562 156.086 52.3555 157.117 50.5977 157.117ZM54.8867 155.348V154.305L58.6367 148.516H60.2305V154.258H61.3906V155.348H60.2305V157H59.0117V155.348H54.8867ZM56.2461 154.258H59.0117V150.051H58.918L56.2461 154.188V154.258ZM64.5312 152.348C63.4531 152.348 62.5859 151.48 62.5859 150.402C62.5859 149.324 63.4531 148.445 64.5312 148.445C65.6094 148.445 66.4766 149.324 66.4766 150.402C66.4766 151.48 65.6094 152.348 64.5312 152.348ZM64.5312 151.41C65.082 151.41 65.5273 150.953 65.5273 150.402C65.5273 149.852 65.082 149.406 64.5312 149.406C63.9805 149.406 63.5234 149.852 63.5234 150.402C63.5234 150.953 63.9805 151.41 64.5312 151.41ZM74.5039 153.074V154.891C75.4648 154.838 76.4375 154.756 77.3516 154.621L77.4336 155.441C75.0547 155.875 72.5117 155.898 70.6367 155.898L70.4961 154.984C71.3398 154.979 72.3359 154.973 73.3906 154.938V153.074H74.5039ZM76.8594 148.832V149.734H74.5039C74.5625 150.965 75.5586 152.031 77.1289 152.453L76.6133 153.32C75.3594 152.963 74.4219 152.201 73.9531 151.199C73.4902 152.254 72.5703 153.051 71.3047 153.414L70.7773 152.57C72.3418 152.125 73.3262 151.023 73.3789 149.734H71.0586V148.832H73.3906V147.578H74.5039V148.832H76.8594ZM79.1211 147.496V158.02H78.0078V147.496H79.1211ZM89.5742 147.496V158.02H88.4609V152.184H86.293V151.27H88.4609V147.496H89.5742ZM84.5586 150.449C84.5586 152.23 85.6719 154.141 87.2891 154.855L86.6211 155.746C85.4082 155.16 84.4707 153.936 84.0078 152.5C83.5391 154.029 82.584 155.336 81.3711 155.957L80.6914 155.09C82.2969 154.328 83.4219 152.336 83.4336 150.449V149.465H81.1133V148.551H86.8906V149.465H84.5586V150.449ZM92.375 155.91C91.918 155.91 91.5312 155.535 91.543 155.078C91.5312 154.621 91.918 154.246 92.375 154.246C92.8203 154.246 93.207 154.621 93.207 155.078C93.207 155.535 92.8203 155.91 92.375 155.91ZM92.375 151.281C91.918 151.281 91.5312 150.906 91.543 150.449C91.5312 149.992 91.918 149.617 92.375 149.617C92.8203 149.617 93.207 149.992 93.207 150.449C93.207 150.906 92.8203 151.281 92.375 151.281ZM97.6367 157V156.062L100.578 153.098C101.504 152.125 101.973 151.586 101.973 150.848C101.973 150.016 101.293 149.477 100.402 149.477C99.4648 149.477 98.8555 150.074 98.8555 150.977H97.6367C97.625 149.43 98.8086 148.398 100.426 148.398C102.066 148.398 103.191 149.43 103.203 150.812C103.191 151.762 102.746 152.512 101.152 154.082L99.4297 155.828V155.898H103.344V157H97.6367ZM104.398 155.348V154.305L108.148 148.516H109.742V154.258H110.902V155.348H109.742V157H108.523V155.348H104.398ZM105.758 154.258H108.523V150.051H108.43L105.758 154.188V154.258ZM114.043 152.348C112.965 152.348 112.098 151.48 112.098 150.402C112.098 149.324 112.965 148.445 114.043 148.445C115.121 148.445 115.988 149.324 115.988 150.402C115.988 151.48 115.121 152.348 114.043 152.348ZM114.043 151.41C114.594 151.41 115.039 150.953 115.039 150.402C115.039 149.852 114.594 149.406 114.043 149.406C113.492 149.406 113.035 149.852 113.035 150.402C113.035 150.953 113.492 151.41 114.043 151.41Z" fill="white"/>
<path d="M31.2584 77.7017C24.649 77.7017 19.9215 74.1675 19.692 68.8892H23.8688C24.0983 72.0562 27.2653 74.0298 31.2125 74.0298C35.5729 74.0298 38.7858 71.6431 38.7858 68.2007C38.7858 64.5747 35.8942 62.0044 30.7076 62.0044H27.9996V58.3784H30.7076C34.7467 58.3784 37.5465 56.1294 37.5465 52.687C37.5465 49.3823 35.1139 47.1333 31.3502 47.1333C27.816 47.1333 24.5573 49.1069 24.3737 52.3657H20.3805C20.61 47.0874 25.4752 43.5532 31.3961 43.5532C37.7301 43.5532 41.5856 47.6841 41.5397 52.4575C41.5856 56.2212 39.3824 59.021 35.8942 59.9849V60.2144C40.2086 60.9028 42.8707 63.978 42.8248 68.2007C42.8707 73.6626 37.8678 77.7017 31.2584 77.7017ZM48.7916 77.2427L48.7457 74.2134L60.0826 62.2798C64.0299 58.103 65.9117 55.854 65.9117 52.7788C65.9117 49.3823 63.0201 47.1333 59.3024 47.1333C55.3551 47.1333 52.8307 49.6577 52.8307 53.3755H48.9293C48.8834 47.5005 53.4274 43.5532 59.4401 43.5532C65.4528 43.5532 69.7672 47.5923 69.7672 52.7788C69.7672 56.4966 68.0231 59.3882 62.1481 65.4468L54.5289 73.2954V73.5708H70.3639V77.2427H48.7916Z" fill="white"/>
<circle cx="82.7929" cy="46.3432" r="4.57781" stroke="white" stroke-width="2.3"/>
<path d="M107.155 25.0398C107.322 25.1783 107.49 25.2218 107.821 25.2218L111.451 25.2377C111.484 25.2377 111.513 25.2377 111.527 25.2534C111.542 25.2652 111.546 25.289 111.546 25.3129L111.561 28.3133C111.565 28.5864 111.618 28.7249 111.786 28.8634C112.011 29.0534 112.328 29.0218 112.563 28.8318C112.688 28.7288 112.788 28.5587 112.879 28.4003L116.547 21.8693C116.739 21.5369 116.715 21.2913 116.518 21.129C116.326 20.9708 116.029 20.951 115.627 21.1093L107.716 24.1374C107.524 24.2126 107.318 24.2957 107.193 24.3987C106.963 24.5926 106.925 24.8499 107.155 25.0399" fill="white"/>
<path d="M30.0405 108.757C26.5063 108.757 24.4996 111.027 24.2084 113.771H24.1195C21.8446 113.771 20 115.556 20 117.758C20 119.96 21.8446 121.746 24.1195 121.746H35.9616C38.2365 121.746 40.0811 119.96 40.0811 117.758C40.0811 115.556 38.2365 113.771 35.9616 113.771H35.8726C35.58 111.009 33.5762 108.757 30.0405 108.757ZM40.3636 112.654C40.3085 112.814 40.311 112.988 40.3708 113.147C40.4306 113.305 40.5438 113.437 40.6907 113.52L40.8083 113.572L41.9572 113.97C42.1267 114.03 42.3124 114.023 42.4774 113.952C42.6424 113.88 42.7748 113.749 42.8484 113.584C42.9219 113.42 42.9313 113.233 42.8747 113.061C42.818 112.89 42.6994 112.746 42.5424 112.658L42.4248 112.606L41.2744 112.208C41.0947 112.146 40.8978 112.158 40.727 112.242C40.5563 112.326 40.4255 112.475 40.3636 112.655M33.024 106.593C32.5478 106.827 32.1275 107.131 31.7718 107.487C34.2991 108.013 36.1179 109.7 36.8537 112.042L36.947 112.365L37.013 112.635L37.2511 112.678C37.887 112.811 38.4942 113.058 39.044 113.406C39.5984 112.537 39.8553 111.509 39.7754 110.48C39.6955 109.451 39.2832 108.476 38.6014 107.704C37.9197 106.932 37.0058 106.406 35.9991 106.205C34.9924 106.005 33.9481 106.141 33.0254 106.593M41.6359 106.838L41.5154 106.884L40.4224 107.42C40.2613 107.498 40.1353 107.635 40.0693 107.803C40.0033 107.97 40.002 108.157 40.0656 108.325C40.1293 108.494 40.2533 108.632 40.4134 108.713C40.5734 108.794 40.7577 108.812 40.9302 108.763L41.0521 108.717L42.1437 108.182C42.3048 108.103 42.4308 107.966 42.4968 107.799C42.5628 107.631 42.5641 107.445 42.5005 107.276C42.4368 107.108 42.3127 106.969 42.1527 106.888C41.9927 106.807 41.8084 106.789 41.6359 106.838ZM31.4907 103.411C31.3397 103.485 31.2193 103.61 31.1506 103.764C31.0819 103.919 31.0693 104.092 31.1149 104.255L31.1608 104.376L31.6929 105.476C31.7712 105.638 31.907 105.765 32.0736 105.831C32.2401 105.898 32.4254 105.899 32.5928 105.835C32.7603 105.771 32.8978 105.646 32.9784 105.485C33.059 105.324 33.0768 105.138 33.0283 104.965L32.9824 104.842L32.4503 103.743C32.4089 103.657 32.3513 103.581 32.2806 103.518C32.2099 103.455 32.1275 103.407 32.0382 103.376C31.949 103.345 31.8545 103.332 31.7603 103.338C31.6661 103.344 31.5754 103.369 31.4907 103.411ZM36.9255 103.364L36.8724 103.483L36.4765 104.64C36.4183 104.811 36.4256 104.997 36.4968 105.162C36.5681 105.327 36.6983 105.46 36.8617 105.533C37.0251 105.607 37.21 105.616 37.38 105.56C37.55 105.503 37.6928 105.385 37.7803 105.228L37.8334 105.109L38.2279 103.953C38.2851 103.783 38.2774 103.598 38.2062 103.433C38.1349 103.269 38.0053 103.137 37.8426 103.063C37.6799 102.99 37.4958 102.98 37.3262 103.036C37.1566 103.091 37.0137 103.209 36.9255 103.364Z" fill="white"/>
<defs>
<linearGradient id="paint0_linear_302_295" x1="88" y1="0" x2="88" y2="176" gradientUnits="userSpaceOnUse">
<stop offset="0.113568" stop-color="#0D4985"/>
<stop offset="0.608119" stop-color="#326DA7"/>
<stop offset="1" stop-color="#4983BE"/>
</linearGradient>
</defs>
</svg>
