<svg width="100" height="90" viewBox="0 0 100 90" fill="none" xmlns="http://www.w3.org/2000/svg">
<g clip-path="url(#clip0_177_49)">
<path d="M37.5 0C34.043 0 31.25 2.51367 31.25 5.625V11.2852C23.7109 11.6719 17.1289 16.084 14.6094 22.5527L7.73437 40.2188C3.20312 41.9062 0 45.9316 0 50.625V84.375C0 87.4863 2.79297 90 6.25 90H12.5C15.957 90 18.75 87.4863 18.75 84.375V75.9375H81.25V84.375C81.25 87.4863 84.043 90 87.5 90H93.75C97.207 90 100 87.4863 100 84.375V50.625C100 45.9316 96.7969 41.9062 92.2656 40.2188L85.3906 22.5527C82.8711 16.084 76.2891 11.6543 68.75 11.2852V5.625C68.75 2.51367 65.957 0 62.5 0H37.5ZM32.3047 22.5H67.6953C70.3516 22.5 72.7148 24.0117 73.5938 26.2617L78.6914 39.375H21.3086L26.4062 26.2617C27.2852 24.0117 29.6484 22.5 32.3047 22.5ZM18.75 50.625C20.4076 50.625 21.9973 51.2176 23.1694 52.2725C24.3415 53.3274 25 54.7582 25 56.25C25 57.7418 24.3415 59.1726 23.1694 60.2275C21.9973 61.2824 20.4076 61.875 18.75 61.875C17.0924 61.875 15.5027 61.2824 14.3306 60.2275C13.1585 59.1726 12.5 57.7418 12.5 56.25C12.5 54.7582 13.1585 53.3274 14.3306 52.2725C15.5027 51.2176 17.0924 50.625 18.75 50.625ZM75 56.25C75 54.7582 75.6585 53.3274 76.8306 52.2725C78.0027 51.2176 79.5924 50.625 81.25 50.625C82.9076 50.625 84.4973 51.2176 85.6694 52.2725C86.8415 53.3274 87.5 54.7582 87.5 56.25C87.5 57.7418 86.8415 59.1726 85.6694 60.2275C84.4973 61.2824 82.9076 61.875 81.25 61.875C79.5924 61.875 78.0027 61.2824 76.8306 60.2275C75.6585 59.1726 75 57.7418 75 56.25Z" fill="#181F29"/>
</g>
<defs>
<clipPath id="clip0_177_49">
<rect width="100" height="90" fill="white"/>
</clipPath>
</defs>
</svg>
