<svg width="204" height="68" viewBox="0 0 204 68" fill="none" xmlns="http://www.w3.org/2000/svg">
<circle cx="33" cy="33" r="33" fill="#EDEFF1"/>
<path d="M33 39C35.3869 39 37.6761 38.1308 39.364 36.5836C41.0518 35.0365 42 32.938 42 30.75C42 28.562 41.0518 26.4635 39.364 24.9164C37.6761 23.3692 35.3869 22.5 33 22.5C30.613 22.5 28.3239 23.3692 26.636 24.9164C24.9482 26.4635 24 28.562 24 30.75C24 32.938 24.9482 35.0365 26.636 36.5836C28.3239 38.1308 30.613 39 33 39ZM13.395 56.8585C13.1179 57.5401 13.088 58.2855 13.3095 58.984C13.5311 59.6824 13.9924 60.2968 14.625 60.736C19.879 64.4793 26.3457 66.5078 33 66.5C39.93 66.5 46.314 64.344 51.393 60.725C52.683 59.8092 53.205 58.2417 52.617 56.8475C51.0937 53.2121 48.4037 50.0855 44.9019 47.8804C41.4002 45.6753 37.2513 44.4953 33.0029 44.4962C28.7545 44.4971 24.6062 45.6788 21.1056 47.8854C17.6049 50.092 14.9165 53.2197 13.395 56.8558" fill="#181F29" fill-opacity="0.8"/>
<path d="M90.8008 25.6328V28.3086C92.2559 28.2207 93.7305 28.084 95.1172 27.8789L95.3125 29.6953C91.3672 30.457 87.1484 30.4961 84.043 30.4961L83.75 28.4844C85.0879 28.4746 86.6602 28.4648 88.3203 28.4062V25.6328H90.8008ZM94.4727 18.1133V20.125H90.8398C91.0059 21.8438 92.3438 23.4551 95.0195 24.1094L93.8867 26.043C91.8066 25.5156 90.3711 24.3633 89.5703 22.8789C88.7793 24.4316 87.3633 25.6426 85.2734 26.1797L84.1016 24.3047C86.7871 23.5918 88.0859 21.9219 88.2617 20.125H84.668V18.1133H88.3203V16.1797H90.8008V18.1133H94.4727ZM98.6133 16.0234V33.8359H96.1328V16.0234H98.6133ZM110.43 17.625V29.5586H101.836V17.625H110.43ZM104.336 19.5781V27.5859H108.008V19.5781H104.336ZM115.84 16.0234V33.8359H113.32V16.0234H115.84ZM125.488 17.7422V24.5977H121.133V27.7812C122.822 27.7617 124.434 27.6934 126.25 27.4102L126.426 29.4023C124.102 29.793 122.188 29.8516 119.98 29.8516H118.75V22.6055H123.086V19.7539H118.73V17.7422H125.488ZM133.613 16.0234V33.7969H131.25V24.7539H129.531V32.9375H127.246V16.3164H129.531V22.7422H131.25V16.0234H133.613Z" fill="#181F29"/>
<path d="M88.0879 55.166C85.415 55.166 83.8877 52.9248 83.8877 48.9902C83.8877 45.0889 85.4482 42.8145 88.0879 42.8145C90.7275 42.8145 92.2881 45.0889 92.2881 48.9902C92.2881 52.9248 90.7441 55.166 88.0879 55.166ZM88.0879 53.8379C89.8145 53.8379 90.8271 52.0947 90.8271 48.9902C90.8271 45.8857 89.8145 44.1094 88.0879 44.1094C86.3613 44.1094 85.332 45.8857 85.332 48.9902C85.332 52.0947 86.3447 53.8379 88.0879 53.8379ZM98.5303 42.9805V55H97.0195V44.541H96.9531L94.0312 46.4834V44.9727L97.0195 42.9805H98.5303ZM105.669 55.166C102.996 55.166 101.469 52.9248 101.469 48.9902C101.469 45.0889 103.029 42.8145 105.669 42.8145C108.309 42.8145 109.869 45.0889 109.869 48.9902C109.869 52.9248 108.325 55.166 105.669 55.166ZM105.669 53.8379C107.396 53.8379 108.408 52.0947 108.408 48.9902C108.408 45.8857 107.396 44.1094 105.669 44.1094C103.942 44.1094 102.913 45.8857 102.913 48.9902C102.913 52.0947 103.926 53.8379 105.669 53.8379ZM117.041 48.3428V49.6543H111.778V48.3428H117.041ZM123.466 42.9805V55H121.955V44.541H121.889L118.967 46.4834V44.9727L121.955 42.9805H123.466ZM126.67 55L126.653 53.9043L130.754 49.5879C132.182 48.0771 132.862 47.2637 132.862 46.1514C132.862 44.9229 131.816 44.1094 130.472 44.1094C129.044 44.1094 128.131 45.0225 128.131 46.3672H126.72C126.703 44.2422 128.347 42.8145 130.521 42.8145C132.696 42.8145 134.257 44.2754 134.257 46.1514C134.257 47.4961 133.626 48.542 131.501 50.7334L128.745 53.5723V53.6719H134.473V55H126.67ZM140.798 55.166C138.407 55.166 136.697 53.8877 136.614 51.9785H138.125C138.208 53.124 139.354 53.8379 140.781 53.8379C142.358 53.8379 143.521 52.9746 143.521 51.7295C143.521 50.418 142.475 49.4883 140.599 49.4883H139.619V48.1768H140.599C142.06 48.1768 143.072 47.3633 143.072 46.1182C143.072 44.9229 142.192 44.1094 140.831 44.1094C139.553 44.1094 138.374 44.8232 138.308 46.002H136.863C136.946 44.0928 138.706 42.8145 140.848 42.8145C143.139 42.8145 144.533 44.3086 144.517 46.0352C144.533 47.3965 143.736 48.4092 142.475 48.7578V48.8408C144.035 49.0898 144.998 50.2021 144.981 51.7295C144.998 53.7051 143.188 55.166 140.798 55.166ZM146.841 52.543V51.3145L152.253 42.9805H154.096V51.2314H155.772V52.543H154.096V55H152.668V52.543H146.841ZM148.451 51.2314H152.668V44.873H152.519L148.451 51.1318V51.2314ZM162.928 48.3428V49.6543H157.665V48.3428H162.928ZM169.021 55.166C166.846 55.166 165.202 53.8213 165.119 51.9785H166.563C166.68 53.0576 167.726 53.8545 169.021 53.8545C170.581 53.8545 171.71 52.709 171.71 51.1982C171.71 49.6377 170.531 48.4922 168.921 48.4756C167.908 48.459 167.128 48.7744 166.68 49.5547H165.235L166.082 42.9805H172.59V44.3086H167.327L166.879 47.8281H166.995C167.526 47.4131 168.34 47.1309 169.187 47.1309C171.478 47.1309 173.171 48.8242 173.171 51.165C173.171 53.4893 171.411 55.166 169.021 55.166ZM179.43 55.166C177.338 55.1328 175.047 53.9043 175.047 49.4551C175.047 45.2051 176.79 42.8145 179.612 42.8145C181.721 42.8145 183.198 44.1094 183.514 46.002H182.036C181.754 44.9395 180.957 44.1426 179.612 44.1426C177.637 44.1426 176.458 45.8359 176.458 48.7246H176.607C177.305 47.7285 178.4 47.1309 179.695 47.1309C181.837 47.1309 183.613 48.791 183.613 51.1152C183.613 53.373 181.953 55.1826 179.43 55.166ZM179.43 53.8545C180.99 53.8545 182.152 52.626 182.169 51.1318C182.152 49.6543 181.04 48.4424 179.463 48.4424C177.886 48.4424 176.674 49.7207 176.657 51.1484C176.657 52.5596 177.819 53.8545 179.43 53.8545ZM186.054 55L191.565 44.3916V44.3086H185.207V42.9805H193.109V44.375L187.614 55H186.054ZM198.837 55.166C196.313 55.166 194.554 53.7715 194.57 51.8125C194.554 50.252 195.633 48.9736 197.011 48.7578V48.6914C195.815 48.4092 195.035 47.3135 195.035 46.002C195.035 44.1592 196.646 42.8145 198.837 42.8145C201.028 42.8145 202.639 44.1592 202.655 46.002C202.639 47.3135 201.842 48.4092 200.663 48.6914V48.7578C202.024 48.9736 203.104 50.252 203.12 51.8125C203.104 53.7715 201.344 55.166 198.837 55.166ZM198.837 53.8545C200.563 53.8545 201.626 52.9912 201.626 51.7295C201.626 50.4014 200.447 49.4219 198.837 49.4219C197.227 49.4219 196.031 50.4014 196.064 51.7295C196.031 52.9912 197.11 53.8545 198.837 53.8545ZM198.837 48.1602C200.198 48.1602 201.194 47.3301 201.194 46.1182C201.194 44.9229 200.248 44.1094 198.837 44.1094C197.409 44.1094 196.479 44.9229 196.479 46.1182C196.479 47.3301 197.459 48.1602 198.837 48.1602Z" fill="#4D5969"/>
</svg>
