<svg width="11" height="18" viewBox="0 0 11 18" fill="none" xmlns="http://www.w3.org/2000/svg">
<path d="M10.1887 9.05078C10.1887 9.17448 10.166 9.28841 10.1204 9.39258C10.0748 9.50326 10.0064 9.60417 9.9153 9.69531L2.17116 17.2734C1.99538 17.4427 1.78379 17.5273 1.5364 17.5273C1.36712 17.5273 1.21739 17.4883 1.08718 17.4102C0.950458 17.332 0.843036 17.2246 0.764911 17.0879C0.680276 16.9577 0.637958 16.8079 0.637958 16.6387C0.637958 16.3978 0.725849 16.1862 0.90163 16.0039L8.011 9.05078L0.90163 2.09766C0.725849 1.91536 0.637958 1.70378 0.637958 1.46289C0.637958 1.29362 0.680276 1.14388 0.764911 1.01367C0.843036 0.876953 0.950458 0.769531 1.08718 0.691406C1.21739 0.613281 1.36712 0.574219 1.5364 0.574219C1.78379 0.574219 1.99538 0.662109 2.17116 0.837891L9.9153 8.40625C10.0064 8.4974 10.0748 8.59505 10.1204 8.69922C10.166 8.8099 10.1887 8.92708 10.1887 9.05078Z" fill="#181F29"/>
</svg>
