<svg width="12" height="8" viewBox="0 0 12 8" fill="none" xmlns="http://www.w3.org/2000/svg">
<path d="M5.76953 7.03444C5.64844 7.03054 5.53711 7.0071 5.43555 6.96413C5.33398 6.91725 5.23633 6.84694 5.14258 6.75319L0.730469 2.24147C0.582031 2.09304 0.507812 1.9114 0.507812 1.69655C0.507812 1.54811 0.542969 1.4153 0.613281 1.29811C0.683594 1.17702 0.779297 1.08132 0.900391 1.011C1.01758 0.936786 1.14844 0.899677 1.29297 0.899677C1.51172 0.899677 1.70312 0.981708 1.86719 1.14577L5.76953 5.15944L9.67188 1.14577C9.83984 0.981708 10.0312 0.899677 10.2461 0.899677C10.3945 0.899677 10.5273 0.936786 10.6445 1.011C10.7617 1.08132 10.8555 1.17702 10.9258 1.29811C10.9961 1.4153 11.0312 1.54811 11.0312 1.69655C11.0312 1.9114 10.957 2.09304 10.8086 2.24147L6.39648 6.75319C6.30273 6.85085 6.20508 6.92311 6.10352 6.96999C5.99805 7.01296 5.88672 7.03444 5.76953 7.03444Z" fill="white"/>
</svg>
