<svg width="34" height="34" viewBox="0 0 34 34" fill="none" xmlns="http://www.w3.org/2000/svg">
<path d="M17 29.24C12.75 29.24 8.993 27.064 6.8 23.8C6.851 20.4 13.6 18.53 17 18.53C20.4 18.53 27.149 20.4 27.2 23.8C26.0763 25.4737 24.5582 26.8453 22.7795 27.794C21.0007 28.7427 19.0159 29.2393 17 29.24ZM17 5.1C18.3526 5.1 19.6498 5.63732 20.6062 6.59376C21.5627 7.55019 22.1 8.8474 22.1 10.2C22.1 11.5526 21.5627 12.8498 20.6062 13.8062C19.6498 14.7627 18.3526 15.3 17 15.3C15.6474 15.3 14.3502 14.7627 13.3938 13.8062C12.4373 12.8498 11.9 11.5526 11.9 10.2C11.9 8.8474 12.4373 7.55019 13.3938 6.59376C14.3502 5.63732 15.6474 5.1 17 5.1ZM17 0C14.7675 0 12.5569 0.439718 10.4944 1.29405C8.43185 2.14838 6.55778 3.40059 4.97918 4.97918C1.79107 8.1673 0 12.4913 0 17C0 21.5087 1.79107 25.8327 4.97918 29.0208C6.55778 30.5994 8.43185 31.8516 10.4944 32.706C12.5569 33.5603 14.7675 34 17 34C21.5087 34 25.8327 32.2089 29.0208 29.0208C32.2089 25.8327 34 21.5087 34 17C34 7.599 26.35 0 17 0Z" fill="#5589FE"/>
</svg>
