<svg width="98" height="126" viewBox="0 0 98 126" fill="none" xmlns="http://www.w3.org/2000/svg">
<rect width="98" height="126" rx="15" fill="#BED2FF" fill-opacity="0.31"/>
<path d="M33.3438 90.4863V101.792H31.4678V99.9824H28.4131V98.5215H31.4678V90.4863H33.3438ZM33.6924 103.685V105.179H22.7021V100.597H24.5449V103.685H33.6924ZM20.5605 96.2471C22.3867 96.2388 24.6528 96.2139 26.9189 96.0811C27.1348 94.6865 27.2012 93.5742 27.2344 92.7607H21.9219V91.2832H29.0771V91.8477C29.0771 92.6279 29.0771 94.0308 28.7783 95.9316C29.293 95.8818 29.8076 95.8154 30.3057 95.749L30.4385 97.0605C29.1436 97.2847 27.8071 97.4424 26.4873 97.542V100.829H24.6611V97.6416C23.2666 97.708 21.9468 97.7246 20.793 97.7246L20.5605 96.2471ZM42.1758 90.7852C45.4629 90.7852 47.5713 91.9141 47.5879 93.7734C47.5713 95.4336 45.853 96.5044 43.1055 96.6953V97.9238H49.0322V99.4014H35.3525V97.9238H41.2461V96.6953C38.4902 96.5044 36.7637 95.4336 36.7637 93.7734C36.7637 91.9141 38.8887 90.7852 42.1758 90.7852ZM42.1758 92.2627C39.9844 92.2627 38.6729 92.7773 38.6895 93.7734C38.6729 94.7197 39.9844 95.2842 42.1758 95.2842C44.3672 95.2842 45.6787 94.7197 45.6787 93.7734C45.6787 92.7773 44.3672 92.2627 42.1758 92.2627ZM47.3555 100.58V105.478H45.5127V102.041H36.8633V100.58H47.3555ZM55.4238 94.7363C55.4238 97.0605 56.8018 99.7002 59.1758 100.796L58.1465 102.257C56.4531 101.46 55.1997 99.8496 54.5273 97.9736C53.8467 100.032 52.5352 101.792 50.8086 102.622L49.7295 101.178C52.1201 100.049 53.5645 97.2266 53.5811 94.7363V93.4746H50.3105V91.9473H58.5615V93.4746H55.4238V94.7363ZM61.7988 90.4697V96.3135H64.1064V97.8574H61.7988V105.478H59.9561V90.4697H61.7988ZM76.4961 92.9121V99.8301H75.2109V92.9121H76.4961ZM68.4023 93.623V97.916C70.3779 97.9023 72.1143 97.7588 73.9531 97.3691L74.1309 98.4492C72.1074 98.8594 70.2617 99.0098 68.1152 99.0098H67.1035V93.623H68.4023ZM76.4961 100.391V104.998H68.4707V100.391H76.4961ZM69.7422 101.416V103.959H75.2246V101.416H69.7422Z" fill="#181F29"/>
<circle cx="49" cy="46" r="33" fill="#F5F7F9"/>
<path d="M49.0001 52.0336C51.387 52.0336 53.6762 51.191 55.364 49.6912C57.0519 48.1914 58.0001 46.1572 58.0001 44.0362C58.0001 41.9152 57.0519 39.881 55.364 38.3812C53.6762 36.8814 51.387 36.0388 49.0001 36.0388C46.6131 36.0388 44.3239 36.8814 42.6361 38.3812C40.9483 39.881 40.0001 41.9152 40.0001 44.0362C40.0001 46.1572 40.9483 48.1914 42.6361 49.6912C44.3239 51.191 46.6131 52.0336 49.0001 52.0336ZM29.3951 69.3452C29.118 70.006 29.088 70.7285 29.3096 71.4056C29.5312 72.0827 29.9925 72.6782 30.6251 73.104C35.879 76.7326 42.3458 78.699 49.0001 78.6915C55.9301 78.6915 62.3141 76.6015 67.3931 73.0933C68.6831 72.2056 69.2051 70.6861 68.6171 69.3345C67.0938 65.8104 64.4037 62.7796 60.902 60.642C57.4003 58.5044 53.2514 57.3606 49.003 57.3614C44.7546 57.3623 40.6063 58.5078 37.1057 60.6468C33.605 62.7858 30.9165 65.8178 29.3951 69.3425" fill="#2D6EFF" fill-opacity="0.8"/>
</svg>
